<mxfile host="app.diagrams.net" modified="2023-04-12T08:45:58.796Z" agent="Mozilla/5.0 (Macintosh; Intel Mac OS X 10_15_7) AppleWebKit/537.36 (KHTML, like Gecko) Chrome/111.0.0.0 Safari/537.36" version="21.1.1" etag="klrXxVmvJEs_KzcsNqFw" type="github">
  <diagram name="第 1 页" id="Qxvy7GcWsFxhPB3t4fSZ">
    <mxGraphModel>
      <root>
        <mxCell id="0" />
        <mxCell id="1" parent="0" />
      </root>
    </mxGraphModel>
  </diagram>
</mxfile>
